 http://www.imdb.com/title/tt0062622/






Format : MPEG-4
Format profile : Base Media / Version 2
Codec ID : mp42
File size : 1.36 GiB
Duration : 2h 28mn
Overall bit rate mode : Variable
Overall bit rate : 1 310 Kbps
Encoded date : UTC 2012-09-18 18:09:55
Tagged date : UTC 2012-09-18 19:25:49
Writing application : HandBrake 0.9.8 2012071800

Video
ID : 1
Format : AVC
Format/Info : Advanced Video Codec
Format profile : Main@L4.0
Format settings, CABAC : Yes
Format settings, ReFrames : 4 frames
Codec ID : avc1
Codec ID/Info : Advanced Video Coding
Duration : 2h 28mn
Bit rate mode : Variable
Bit rate : 1 142 Kbps
Width : 1 916 pixels
Height : 864 pixels
Display aspect ratio : 2.2:1
Frame rate mode : Variable
Frame rate : 23.976 fps
Minimum frame rate : 23.810 fps
Maximum frame rate : 24.390 fps
Color space : YUV
Chroma subsampling : 4:2:0
Bit depth : 8 bits
Scan type : Progressive
Bits/(Pixel*Frame) : 0.029
Stream size : 1.19 GiB (87%)
Writing library : x264 core 120
Encoded date : UTC 2012-09-18 18:09:55
Tagged date : UTC 2012-09-18 19:25:49
Color primaries : BT.709-5, BT.1361, IEC 61966-2-4, SMPTE RP177
Transfer characteristics : BT.709-5, BT.1361
Matrix coefficients : BT.709-5, BT.1361, IEC 61966-2-4 709, SMPTE RP177

Audio
ID : 2
Format : AAC
Format/Info : Advanced Audio Codec
Format profile : LC
Codec ID : 40
Duration : 2h 28mn
Bit rate mode : Variable
Bit rate : 163 Kbps
Maximum bit rate : 244 Kbps
Channel(s) : 2 channels
Channel positions : Front: L R
Sampling rate : 48.0 KHz
Compression mode : Lossy
Stream size : 174 MiB (12%)
Encoded date : UTC 2012-09-18 18:09:55
Tagged date : UTC 2012-09-18 19:25:48









If you have any requests please leave them at my Suprbay forum, from now on i 

will disregard any requests left on here


  https://forum.suprbay.org/showthread.php?tid=130110






                                ENCODED BY THE HAMBURGLER


Please Comment On Quality And Seed

Sharing Is Caring
